<svg width="150" height="70" viewBox="0 0 150 70" fill="none" xmlns="http://www.w3.org/2000/svg">
<g clip-path="url(#clip0_40_182)">
<rect width="150" height="70" fill="white"/>
<path d="M10.79 44.285C9.40933 44.285 8.20283 44 7.1705 43.43C6.13817 42.86 5.33383 42.0557 4.7575 41.017C4.1875 39.972 3.9025 38.7528 3.9025 37.3595C3.9025 36.3462 4.07033 35.4183 4.406 34.576C4.748 33.7273 5.22617 32.9927 5.8405 32.372C6.46117 31.7513 7.19267 31.27 8.035 30.928C8.87733 30.586 9.802 30.415 10.809 30.415C11.8223 30.415 12.6963 30.5417 13.431 30.795C14.172 31.0483 14.818 31.4093 15.369 31.878L14.267 33.6165C13.849 33.2302 13.3613 32.942 12.804 32.752C12.2467 32.562 11.6323 32.467 10.961 32.467C10.22 32.467 9.55183 32.581 8.9565 32.809C8.36117 33.037 7.85133 33.3632 7.427 33.7875C7.009 34.2055 6.686 34.7153 6.458 35.317C6.23633 35.9123 6.1255 36.5868 6.1255 37.3405C6.1255 38.3665 6.325 39.2437 6.724 39.972C7.12933 40.7003 7.69933 41.2577 8.434 41.644C9.175 42.024 10.049 42.214 11.056 42.214C11.7273 42.214 12.3733 42.1158 12.994 41.9195C13.621 41.7168 14.2068 41.3907 14.7515 40.941L15.7395 42.7365C15.0998 43.2368 14.3683 43.62 13.545 43.886C12.728 44.152 11.8097 44.285 10.79 44.285ZM17.977 44V30.7H20.105V35.982H26.546V30.7H28.674V44H26.546V37.939H20.105V44H17.977ZM32.1343 44V30.7H37.1598C38.0844 30.7 38.8824 30.8615 39.5538 31.1845C40.2314 31.5012 40.7539 31.954 41.1213 32.543C41.4949 33.132 41.6818 33.8318 41.6818 34.6425C41.6818 35.3012 41.5393 35.8838 41.2543 36.3905C40.9756 36.8972 40.5829 37.3152 40.0763 37.6445C39.5696 37.9675 38.9838 38.186 38.3188 38.3L42.3278 44H39.7533L36.0768 38.6325H34.2623V44H32.1343ZM34.2623 36.8655H36.8083C37.6696 36.8655 38.3378 36.6818 38.8128 36.3145C39.2941 35.9472 39.5348 35.4215 39.5348 34.7375C39.5348 34.0345 39.3194 33.4867 38.8888 33.094C38.4644 32.7013 37.8216 32.505 36.9603 32.505H34.2623V36.8655ZM50.7409 44.285C49.7402 44.285 48.8124 44.1108 47.9574 43.7625C47.1087 43.4078 46.3677 42.917 45.7344 42.29C45.1074 41.663 44.6166 40.9283 44.2619 40.086C43.9136 39.2437 43.7394 38.3317 43.7394 37.35C43.7394 36.362 43.9136 35.4468 44.2619 34.6045C44.6166 33.7622 45.1074 33.0275 45.7344 32.4005C46.3677 31.7735 47.1087 31.2858 47.9574 30.9375C48.8124 30.5892 49.7402 30.415 50.7409 30.415C51.7352 30.415 52.6567 30.5923 53.5054 30.947C54.3541 31.3017 55.0951 31.7957 55.7284 32.429C56.3617 33.0623 56.8526 33.8002 57.2009 34.6425C57.5556 35.4785 57.7329 36.381 57.7329 37.35C57.7329 38.3317 57.5556 39.2437 57.2009 40.086C56.8526 40.9283 56.3617 41.663 55.7284 42.29C55.0951 42.917 54.3541 43.4078 53.5054 43.7625C52.6567 44.1108 51.7352 44.285 50.7409 44.285ZM50.7409 42.271C51.4122 42.271 52.0361 42.157 52.6124 41.929C53.1951 41.6947 53.7017 41.3622 54.1324 40.9315C54.5631 40.4945 54.8987 39.9752 55.1394 39.3735C55.3864 38.7655 55.5099 38.091 55.5099 37.35C55.5099 36.3557 55.2977 35.4912 54.8734 34.7565C54.4554 34.0155 53.8854 33.4423 53.1634 33.037C52.4414 32.6317 51.6339 32.429 50.7409 32.429C50.0696 32.429 49.4426 32.5462 48.8599 32.7805C48.2836 33.0085 47.7769 33.3378 47.3399 33.7685C46.9092 34.1992 46.5704 34.7185 46.3234 35.3265C46.0827 35.9282 45.9624 36.6027 45.9624 37.35C45.9624 38.3443 46.1746 39.212 46.5989 39.953C47.0232 40.6877 47.5932 41.2577 48.3089 41.663C49.0309 42.0683 49.8416 42.271 50.7409 42.271ZM60.356 44V30.7H62.389L69.1055 40.3615V30.7H71.1765V44H69.1435L62.4365 34.2245V44H60.356ZM80.8181 44.285C79.8174 44.285 78.8896 44.1108 78.0346 43.7625C77.1859 43.4078 76.4449 42.917 75.8116 42.29C75.1846 41.663 74.6937 40.9283 74.3391 40.086C73.9907 39.2437 73.8166 38.3317 73.8166 37.35C73.8166 36.362 73.9907 35.4468 74.3391 34.6045C74.6937 33.7622 75.1846 33.0275 75.8116 32.4005C76.4449 31.7735 77.1859 31.2858 78.0346 30.9375C78.8896 30.5892 79.8174 30.415 80.8181 30.415C81.8124 30.415 82.7339 30.5923 83.5826 30.947C84.4312 31.3017 85.1722 31.7957 85.8056 32.429C86.4389 33.0623 86.9297 33.8002 87.2781 34.6425C87.6327 35.4785 87.8101 36.381 87.8101 37.35C87.8101 38.3317 87.6327 39.2437 87.2781 40.086C86.9297 40.9283 86.4389 41.663 85.8056 42.29C85.1722 42.917 84.4312 43.4078 83.5826 43.7625C82.7339 44.1108 81.8124 44.285 80.8181 44.285ZM80.8181 42.271C81.4894 42.271 82.1132 42.157 82.6896 41.929C83.2722 41.6947 83.7789 41.3622 84.2096 40.9315C84.6402 40.4945 84.9759 39.9752 85.2166 39.3735C85.4636 38.7655 85.5871 38.091 85.5871 37.35C85.5871 36.3557 85.3749 35.4912 84.9506 34.7565C84.5326 34.0155 83.9626 33.4423 83.2406 33.037C82.5186 32.6317 81.7111 32.429 80.8181 32.429C80.1467 32.429 79.5197 32.5462 78.9371 32.7805C78.3607 33.0085 77.8541 33.3378 77.4171 33.7685C76.9864 34.1992 76.6476 34.7185 76.4006 35.3265C76.1599 35.9282 76.0396 36.6027 76.0396 37.35C76.0396 38.3443 76.2517 39.212 76.6761 39.953C77.1004 40.6877 77.6704 41.2577 78.3861 41.663C79.1081 42.0683 79.9187 42.271 80.8181 42.271ZM90.4331 44V30.7H92.5611V42.043H98.3561V44H90.4331ZM106.368 44.285C105.367 44.285 104.439 44.1108 103.584 43.7625C102.736 43.4078 101.995 42.917 101.361 42.29C100.734 41.663 100.244 40.9283 99.8889 40.086C99.5405 39.2437 99.3664 38.3317 99.3664 37.35C99.3664 36.362 99.5405 35.4468 99.8889 34.6045C100.244 33.7622 100.734 33.0275 101.361 32.4005C101.995 31.7735 102.736 31.2858 103.584 30.9375C104.439 30.5892 105.367 30.415 106.368 30.415C107.362 30.415 108.284 30.5923 109.132 30.947C109.981 31.3017 110.722 31.7957 111.355 32.429C111.989 33.0623 112.48 33.8002 112.828 34.6425C113.183 35.4785 113.36 36.381 113.36 37.35C113.36 38.3317 113.183 39.2437 112.828 40.086C112.48 40.9283 111.989 41.663 111.355 42.29C110.722 42.917 109.981 43.4078 109.132 43.7625C108.284 44.1108 107.362 44.285 106.368 44.285ZM106.368 42.271C107.039 42.271 107.663 42.157 108.239 41.929C108.822 41.6947 109.329 41.3622 109.759 40.9315C110.19 40.4945 110.526 39.9752 110.766 39.3735C111.013 38.7655 111.137 38.091 111.137 37.35C111.137 36.3557 110.925 35.4912 110.5 34.7565C110.082 34.0155 109.512 33.4423 108.79 33.037C108.068 32.6317 107.261 32.429 106.368 32.429C105.697 32.429 105.07 32.5462 104.487 32.7805C103.911 33.0085 103.404 33.3378 102.967 33.7685C102.536 34.1992 102.197 34.7185 101.95 35.3265C101.71 35.9282 101.589 36.6027 101.589 37.35C101.589 38.3443 101.802 39.212 102.226 39.953C102.65 40.6877 103.22 41.2577 103.936 41.663C104.658 42.0683 105.469 42.271 106.368 42.271ZM122.771 44.285C121.713 44.285 120.735 44.1235 119.835 43.8005C118.936 43.4775 118.148 43.0152 117.47 42.4135C116.799 41.8055 116.276 41.0772 115.902 40.2285C115.529 39.3798 115.342 38.4267 115.342 37.369C115.342 36.3177 115.522 35.3677 115.883 34.519C116.244 33.664 116.748 32.9325 117.394 32.3245C118.046 31.7102 118.809 31.2383 119.683 30.909C120.564 30.5797 121.523 30.415 122.562 30.415C123.043 30.415 123.531 30.453 124.025 30.529C124.519 30.605 125.003 30.7317 125.478 30.909C125.96 31.08 126.416 31.3143 126.846 31.612L125.915 33.284C125.434 32.98 124.912 32.752 124.348 32.6C123.791 32.448 123.214 32.372 122.619 32.372C121.846 32.372 121.146 32.4892 120.519 32.7235C119.892 32.9515 119.357 33.284 118.914 33.721C118.471 34.1517 118.129 34.6742 117.888 35.2885C117.654 35.9028 117.536 36.5932 117.536 37.3595C117.536 38.4362 117.764 39.3513 118.22 40.105C118.676 40.8587 119.303 41.4318 120.101 41.8245C120.906 42.2108 121.83 42.404 122.875 42.404C123.388 42.404 123.851 42.3565 124.262 42.2615C124.674 42.1602 125.007 42.0462 125.26 41.9195V38.7085H122.239V36.9415H127.169V43.1545C126.821 43.3888 126.384 43.5915 125.858 43.7625C125.339 43.9335 124.801 44.0633 124.243 44.152C123.692 44.2407 123.202 44.285 122.771 44.285ZM130.437 44V30.7H132.565V44H130.437ZM142.102 44.285C140.721 44.285 139.514 44 138.482 43.43C137.45 42.86 136.645 42.0557 136.069 41.017C135.499 39.972 135.214 38.7528 135.214 37.3595C135.214 36.3462 135.382 35.4183 135.718 34.576C136.06 33.7273 136.538 32.9927 137.152 32.372C137.773 31.7513 138.504 31.27 139.347 30.928C140.189 30.586 141.114 30.415 142.121 30.415C143.134 30.415 144.008 30.5417 144.743 30.795C145.484 31.0483 146.13 31.4093 146.681 31.878L145.579 33.6165C145.161 33.2302 144.673 32.942 144.116 32.752C143.558 32.562 142.944 32.467 142.273 32.467C141.532 32.467 140.863 32.581 140.268 32.809C139.673 33.037 139.163 33.3632 138.739 33.7875C138.321 34.2055 137.998 34.7153 137.77 35.317C137.548 35.9123 137.437 36.5868 137.437 37.3405C137.437 38.3665 137.637 39.2437 138.036 39.972C138.441 40.7003 139.011 41.2577 139.746 41.644C140.487 42.024 141.361 42.214 142.368 42.214C143.039 42.214 143.685 42.1158 144.306 41.9195C144.933 41.7168 145.518 41.3907 146.063 40.941L147.051 42.7365C146.411 43.2368 145.68 43.62 144.857 43.886C144.04 44.152 143.121 44.285 142.102 44.285Z" fill="black"/>
<path d="M75 15C84.5086 15 92.669 20.7703 96.1719 29H93.4951C90.157 22.1529 83.13 17.4346 75 17.4346C66.87 17.4346 59.843 22.1529 56.5049 29H53.8281C57.331 20.7703 65.4914 15 75 15Z" fill="black"/>
<path d="M75.1719 60C65.6633 60 57.5028 54.2297 54 46H56.6768C60.0149 52.8471 67.0419 57.5654 75.1719 57.5654C83.3019 57.5654 90.3289 52.8471 93.667 46H96.3438C92.8409 54.2297 84.6805 60 75.1719 60Z" fill="black"/>
<path d="M93.0156 21.0996H93.0146C92.9067 21.1006 92.7968 21.1097 92.6846 21.124C92.2543 21.179 91.7865 21.3501 91.292 21.6494L92.7139 23.2129C93.079 23.0879 93.4812 22.9661 93.9346 22.8447L94.1025 22.7998L94.0576 22.9678C93.5947 24.6936 93.1633 25.7199 92.2451 26.5684H92.2441L92.2422 26.5713L92.2393 26.5742C92.2295 26.5824 92.2189 26.5898 92.209 26.5977L92.21 26.6006L92.1436 26.6592C91.314 27.3863 90.1072 27.9891 88.1982 28.832L87.9619 28.9365L88.0664 28.7002C88.7656 27.1207 89.3018 26.0252 89.8701 25.2285L90.1162 24.9043L90.3721 24.5107L89.1963 23.2666L88.6318 24.3281L88.624 24.3389C87.7514 25.5752 86.885 27.159 86.0693 29.0547L86.0615 29.0723L86.0479 29.0859C79.5493 35.5112 73.5779 41.2965 68.7197 46.3311C64.0409 51.1797 60.4038 55.3261 58.3223 58.6689C61.6773 56.4618 65.8363 52.763 70.6855 48.0664C75.7173 43.193 81.4873 37.2546 87.8721 30.8135L87.8857 30.7998L87.9023 30.792L88.626 30.4619C90.2802 29.6839 91.6916 28.8549 92.8145 28.0186C92.8226 28.0125 92.8307 28.0062 92.8398 27.999C92.8487 27.9921 92.8589 27.9843 92.8691 27.9766C92.9608 27.9074 93.0514 27.8368 93.1416 27.7656H93.1426C93.2485 27.6823 93.3506 27.597 93.4521 27.5127C93.7278 27.2833 93.9842 27.0567 94.2129 26.8301C95.226 25.8261 95.7611 24.8722 95.873 24.0996C95.9292 23.7123 95.9008 23.3593 95.7656 23.0166C95.63 22.6728 95.3835 22.332 94.9922 21.9746C94.3942 21.4283 93.8368 21.1672 93.2666 21.1123L93.123 21.1025C93.0847 21.1012 93.0502 21.0993 93.0156 21.0996Z" fill="black" stroke="white" stroke-width="0.2"/>
</g>
<defs>
<clipPath id="clip0_40_182">
<rect width="150" height="70" fill="white"/>
</clipPath>
</defs>
</svg>
